<svg xmlns="http://www.w3.org/2000/svg" viewBox="0 0 150 150" role="img" aria-label="Lunex Displays mark">
  <g fill="#FF6A3D">
    <circle cx="12.5" cy="12.5" r="5.3"/>
    <circle cx="37.5" cy="12.5" r="5.3"/>
    <circle cx="62.5" cy="12.5" r="5.3" fill-opacity=".985"/>
    <circle cx="87.5" cy="12.5" r="5.3" fill-opacity=".814"/>
    <circle cx="112.5" cy="12.5" r="5.3" fill-opacity=".643"/>
    <circle cx="137.5" cy="12.5" r="5.3" fill-opacity=".473"/>
    <circle cx="12.5" cy="37.5" r="5.3"/>
    <circle cx="37.5" cy="37.5" r="5.3"/>
    <circle cx="62.5" cy="37.5" r="5.3" fill-opacity=".905"/>
    <circle cx="87.5" cy="37.5" r="5.3" fill-opacity=".735"/>
    <circle cx="112.5" cy="37.5" r="5.3" fill-opacity=".564"/>
    <circle cx="137.5" cy="37.5" r="5.3" fill-opacity=".394"/>
    <circle cx="12.5" cy="62.5" r="5.3"/>
    <circle cx="37.5" cy="62.5" r="5.3" fill-opacity=".996"/>
    <circle cx="62.5" cy="62.5" r="5.3" fill-opacity=".826"/>
    <circle cx="87.5" cy="62.5" r="5.3" fill-opacity=".655"/>
    <circle cx="112.5" cy="62.5" r="5.3" fill-opacity=".484"/>
    <circle cx="137.5" cy="62.5" r="5.3" fill-opacity=".314"/>
    <circle cx="12.5" cy="87.5" r="5.3"/>
    <circle cx="37.5" cy="87.5" r="5.3" fill-opacity=".916"/>
    <circle cx="62.5" cy="87.5" r="5.3" fill-opacity=".746"/>
    <circle cx="87.5" cy="87.5" r="5.3" fill-opacity=".575"/>
    <circle cx="112.5" cy="87.5" r="5.3" fill-opacity=".405"/>
    <circle cx="137.5" cy="87.5" r="5.3" fill-opacity=".234"/>
    <circle cx="12.5" cy="112.5" r="5.3"/>
    <circle cx="37.5" cy="112.5" r="5.3" fill-opacity=".837"/>
    <circle cx="62.5" cy="112.5" r="5.3" fill-opacity=".667"/>
    <circle cx="87.5" cy="112.5" r="5.3" fill-opacity=".496"/>
    <circle cx="112.5" cy="112.5" r="5.3" fill-opacity=".325"/>
    <circle cx="137.5" cy="112.5" r="5.3" fill-opacity=".155"/>
    <circle cx="12.5" cy="137.5" r="5.3" fill-opacity=".928"/>
    <circle cx="37.5" cy="137.5" r="5.3" fill-opacity=".757"/>
    <circle cx="62.5" cy="137.5" r="5.3" fill-opacity=".587"/>
    <circle cx="87.5" cy="137.5" r="5.3" fill-opacity=".416"/>
    <circle cx="112.5" cy="137.5" r="5.3" fill-opacity=".246"/>
    <circle cx="137.5" cy="137.5" r="5.3" fill-opacity=".075"/>
  </g>
</svg>
